<svg width="89" height="62" viewBox="0 0 89 62" fill="none" xmlns="http://www.w3.org/2000/svg">
<g id="Group">
<path id="Vector" d="M3 21.4444V12.2222C3 9.77634 3.97162 7.43063 5.70113 5.70113C7.43063 3.97162 9.77634 3 12.2222 3H21.4444M3 21.4444C9.14661 21.4444 21.4444 17.7556 21.4444 3M3 21.4444V39.8889M21.4444 3H67.5556M3 39.8889V49.1111C3 51.557 3.97162 53.9027 5.70113 55.6322C7.43063 57.3617 9.77634 58.3333 12.2222 58.3333H21.4444M3 39.8889C9.14661 39.8889 21.4444 43.5778 21.4444 58.3333M86 21.4444V12.2222C86 9.77634 85.0284 7.43063 83.2989 5.70113C81.5694 3.97162 79.2237 3 76.7778 3H67.5556M86 21.4444C79.8534 21.4444 67.5556 17.7556 67.5556 3M86 21.4444V39.8889M86 39.8889V49.1111C86 51.557 85.0284 53.9027 83.2989 55.6322C81.5694 57.3617 79.2237 58.3333 76.7778 58.3333H67.5556M86 39.8889C79.8534 39.8889 67.5556 43.5778 67.5556 58.3333M67.5556 58.3333H21.4444" stroke="black" stroke-width="6" stroke-linecap="round" stroke-linejoin="round"/>
<path id="Vector_2" d="M44.5 39.8889C49.5933 39.8889 53.7222 35.76 53.7222 30.6667C53.7222 25.5734 49.5933 21.4444 44.5 21.4444C39.4067 21.4444 35.2778 25.5734 35.2778 30.6667C35.2778 35.76 39.4067 39.8889 44.5 39.8889Z" stroke="black" stroke-width="6" stroke-linecap="round" stroke-linejoin="round"/>
</g>
</svg>
