<svg width="86" height="86" viewBox="0 0 86 86" fill="none" xmlns="http://www.w3.org/2000/svg">
<g id="mdi:food">
<path id="Vector" d="M64.715 82.4167H70.6633C73.6733 82.4167 76.1459 80.0875 76.5042 77.1492L82.4167 18.0958H64.5V3.58334H57.4408V18.0958H39.6317L40.7067 26.4808C46.8342 28.165 52.5675 31.2108 56.0075 34.5792C61.1675 39.6675 64.715 44.935 64.715 53.535V82.4167ZM3.58334 78.8333V75.25H57.4408V78.8333C57.4408 80.7683 55.8283 82.4167 53.75 82.4167H7.16668C5.19584 82.4167 3.58334 80.7683 3.58334 78.8333ZM57.4408 53.75C57.4408 25.0833 3.58334 25.0833 3.58334 53.75H57.4408ZM3.58334 60.9167H57.3333V68.0833H3.58334V60.9167Z" fill="black"/>
</g>
</svg>
