<svg width="24" height="24" viewBox="0 0 24 24" fill="none" xmlns="http://www.w3.org/2000/svg">
<g id="Group">
<path id="Vector" d="M3.44444 12H1L12 1L23 12H20.5556M3.44444 12V20.5556C3.44444 21.2039 3.70198 21.8256 4.16041 22.284C4.61883 22.7425 5.24058 23 5.88889 23H18.1111C18.7594 23 19.3812 22.7425 19.8396 22.284C20.298 21.8256 20.5556 21.2039 20.5556 20.5556V12" stroke="#315EFF" stroke-width="2" stroke-linecap="round" stroke-linejoin="round"/>
<path id="Vector_2" d="M8.33331 23V15.6667C8.33331 15.0184 8.59085 14.3966 9.04927 13.9382C9.5077 13.4798 10.1295 13.2222 10.7778 13.2222H13.2222C13.8705 13.2222 14.4923 13.4798 14.9507 13.9382C15.4091 14.3966 15.6666 15.0184 15.6666 15.6667V23" stroke="#315EFF" stroke-width="2" stroke-linecap="round" stroke-linejoin="round"/>
</g>
</svg>
