<svg width="133" height="81" viewBox="0 0 133 81" fill="none" xmlns="http://www.w3.org/2000/svg">
<g id="OBJECTS" clip-path="url(#clip0_42_222)">
<path id="Vector" d="M131.39 80.3813C134.999 64.3128 132.497 47.2579 124.183 32.9763C116.822 20.3344 105.223 10.3489 91.5823 4.83265C77.3857 -0.912892 61.2079 -1.54888 46.574 2.99823C32.478 7.38093 20.1095 16.4665 11.7167 28.4854C2.72463 41.361 -1.32529 57.3126 0.384771 72.8706C0.660306 75.3929 1.08454 77.8979 1.63998 80.377C1.8849 81.4672 3.5731 81.0043 3.32818 79.9141C-0.188165 64.2566 2.30039 47.6127 10.4396 33.7204C17.6166 21.4679 28.9179 11.6901 42.2048 6.39017C56.0208 0.873937 71.617 0.242273 85.8442 4.6293C99.5465 8.85626 111.648 17.6866 119.805 29.3637C128.565 41.9061 132.497 57.278 130.944 72.4379C130.686 74.9559 130.262 77.4523 129.707 79.9227C129.462 81.0086 131.15 81.4759 131.395 80.3856L131.39 80.3813Z" fill="#774620"/>
<g id="Group">
<path id="Vector_2" d="M38.4917 25.4872C38.4917 25.4872 38.4961 25.4958 38.5005 25.5001C38.5136 25.5131 38.5223 25.5304 38.5354 25.5434C38.5442 25.5564 38.5573 25.5694 38.5661 25.5824C38.5748 25.5953 38.5836 25.6126 38.5923 25.6256C38.601 25.6386 38.6098 25.6559 38.6185 25.6689C38.6273 25.6819 38.6317 25.6948 38.6404 25.7121C38.6492 25.7295 38.6579 25.7468 38.6623 25.7597C38.6666 25.7727 38.6754 25.79 38.6798 25.803C38.6841 25.8203 38.6929 25.8376 38.6973 25.8506C38.7016 25.8679 38.706 25.8852 38.7104 25.9025C38.7104 25.9198 38.7191 25.9328 38.7235 25.9501C38.7235 25.9674 38.7279 25.9847 38.7323 26.002C38.7323 26.0193 38.7366 26.0323 38.741 26.0496C38.741 26.0669 38.741 26.0842 38.741 26.1015C38.741 26.1188 38.741 26.1361 38.741 26.1534C38.741 26.1708 38.741 26.1837 38.741 26.201C38.741 26.2183 38.741 26.24 38.741 26.2573C38.741 26.2616 38.741 26.2659 38.741 26.2746C38.6623 26.9668 38.4523 27.6504 38.12 28.2821C37.7876 28.9137 37.3283 29.4935 36.7467 29.978C36.2918 30.3588 35.7932 30.6616 35.2728 30.8823C34.7479 31.1029 34.2056 31.2414 33.6502 31.3019C32.548 31.4231 31.424 31.2284 30.4181 30.7265C29.749 30.3934 29.1323 29.9218 28.6206 29.3247C28.2357 28.8748 27.9296 28.3816 27.7065 27.8667C27.4835 27.3475 27.3435 26.8111 27.2823 26.2616C27.1598 25.1713 27.3566 24.0594 27.8596 23.0644C28.1963 22.4024 28.6687 21.7924 29.2766 21.2862C29.867 20.793 30.5318 20.4295 31.2272 20.2089C31.9226 19.9839 32.6486 19.8974 33.3659 19.9406C33.3659 19.9406 33.3703 19.9406 33.3746 19.9406C33.3965 19.9406 33.414 19.9406 33.4359 19.9493C33.449 19.9493 33.4665 19.9493 33.4796 19.9536C33.4971 19.9536 33.5146 19.9623 33.5321 19.9666C33.5496 19.9666 33.5627 19.9753 33.5802 19.9796C33.5933 19.9796 33.6108 19.9882 33.6239 19.9926C33.6414 19.9969 33.6589 20.0012 33.6764 20.0099C33.6895 20.0142 33.707 20.0229 33.7202 20.0272C33.7376 20.0358 33.7551 20.0402 33.7683 20.0488C33.7858 20.0575 33.7989 20.0661 33.8164 20.0748C33.8295 20.0834 33.8426 20.0877 33.8557 20.0964C33.8732 20.1051 33.8863 20.118 33.9038 20.1267C33.917 20.1353 33.9301 20.144 33.9388 20.1526C33.9519 20.1613 33.9651 20.1743 33.9782 20.1873C33.9913 20.2002 34.0044 20.2089 34.0176 20.2219C34.0263 20.2305 34.0394 20.2435 34.0482 20.2522C34.0613 20.2651 34.0744 20.2781 34.0875 20.2954C34.0875 20.2954 34.0875 20.2997 34.0919 20.3041C34.1006 20.3127 34.105 20.3214 34.1138 20.33C34.1269 20.343 34.14 20.3603 34.1488 20.3776C34.1575 20.3906 34.1663 20.4036 34.175 20.4166C34.1837 20.4295 34.1925 20.4468 34.2012 20.4598C34.21 20.4728 34.2187 20.4901 34.2275 20.5074C34.2362 20.5204 34.2406 20.5377 34.2494 20.5507C34.2581 20.568 34.2625 20.581 34.2668 20.5983C34.2712 20.6156 34.28 20.6286 34.2843 20.6459C34.2887 20.6632 34.2931 20.6761 34.2975 20.6935C34.3018 20.7108 34.3062 20.7281 34.3106 20.741C34.3106 20.7583 34.3193 20.7757 34.3193 20.7886C34.3193 20.8059 34.3237 20.8232 34.3281 20.8406C34.3281 20.8579 34.3281 20.8752 34.3324 20.8925C34.3324 20.9098 34.3324 20.9228 34.3324 20.9401C34.3324 20.9617 34.3324 20.979 34.3324 21.0006C34.3324 21.0136 34.3324 21.0223 34.3324 21.0352C34.3324 21.0352 34.3324 21.0396 34.3324 21.0439C34.3324 21.0655 34.3281 21.0872 34.3237 21.1088C34.3237 21.1218 34.3237 21.1348 34.3193 21.1477C34.3193 21.1694 34.3106 21.191 34.3062 21.2083C34.3062 21.2213 34.3018 21.2343 34.2975 21.2472C34.2887 21.2775 34.28 21.3035 34.2668 21.3338C34.2625 21.3511 34.2537 21.3641 34.245 21.3814C34.2362 21.3987 34.2275 21.4203 34.2187 21.4376C34.2144 21.4506 34.2056 21.4592 34.2012 21.4722C34.1925 21.4895 34.1794 21.5112 34.1663 21.5285C34.1619 21.5371 34.1531 21.5501 34.1444 21.5587C34.1313 21.5761 34.1181 21.5934 34.105 21.6107C34.0963 21.6236 34.0875 21.6323 34.0744 21.6453C34.0613 21.6583 34.0482 21.6756 34.035 21.6885C34.0132 21.7145 33.9869 21.7361 33.9607 21.7578C33.9345 21.7794 33.9082 21.801 33.8776 21.8183C33.8645 21.827 33.8557 21.8313 33.8426 21.84C33.8251 21.8486 33.8076 21.8616 33.7901 21.8702C33.777 21.8789 33.7595 21.8832 33.7464 21.8919C33.7289 21.9005 33.7158 21.9092 33.6983 21.9135C33.6852 21.9222 33.6677 21.9265 33.6545 21.9308C33.6371 21.9351 33.6239 21.9438 33.6064 21.9481C33.5933 21.9525 33.5758 21.9568 33.5583 21.9611C33.5408 21.9654 33.5233 21.9698 33.5058 21.9741C33.4884 21.9741 33.4752 21.9784 33.4577 21.9827C33.4402 21.9827 33.4227 21.9871 33.4053 21.9914C33.3878 21.9914 33.3703 21.9914 33.3571 21.9914C33.3396 21.9914 33.3222 21.9914 33.309 21.9914C33.2915 21.9914 33.2697 21.9914 33.2522 21.9914C33.2391 21.9914 33.2259 21.9914 33.2172 21.9914C32.758 21.9654 32.2944 22.0217 31.8526 22.1601C31.4109 22.3029 30.991 22.5279 30.6105 22.848C30.3175 23.0946 30.077 23.3715 29.8845 23.6744C29.6921 23.9772 29.5478 24.3017 29.4516 24.6392C29.2591 25.3141 29.2679 26.0366 29.4822 26.7116C29.6265 27.1615 29.8583 27.5898 30.1907 27.9749C30.44 28.2648 30.7199 28.5027 31.026 28.6931C31.3322 28.8834 31.6602 29.0262 32.0013 29.1214C32.6836 29.3074 33.414 29.3031 34.0963 29.0868C34.5511 28.944 34.9841 28.7147 35.3734 28.3859C35.7451 28.0744 36.0381 27.7066 36.2481 27.3043C36.458 26.9019 36.5936 26.4693 36.6417 26.0237C36.6417 26.015 36.6417 26.002 36.6461 25.9934C36.6461 25.9761 36.6504 25.9588 36.6548 25.9414C36.6548 25.9241 36.6636 25.9068 36.6679 25.8939C36.6679 25.8766 36.6767 25.8636 36.6811 25.8463C36.6854 25.829 36.6898 25.8117 36.6985 25.7943C36.7029 25.7814 36.7073 25.7641 36.716 25.7511C36.7248 25.7338 36.7292 25.7165 36.7379 25.7035C36.7423 25.6905 36.751 25.6775 36.7598 25.6646C36.7685 25.6472 36.7773 25.6343 36.786 25.617C36.7948 25.604 36.8035 25.591 36.8079 25.578C36.8166 25.5607 36.8298 25.5477 36.8385 25.5348C36.8472 25.5218 36.856 25.5088 36.8647 25.5001C36.8779 25.4828 36.891 25.4699 36.9041 25.4526C36.9128 25.4439 36.9216 25.4353 36.9303 25.4223C36.9522 25.3963 36.9785 25.3747 37.0047 25.353C37.0309 25.3314 37.0572 25.3098 37.0834 25.2925C37.1097 25.2752 37.1359 25.2579 37.1621 25.2449C37.1621 25.2449 37.1709 25.2406 37.1753 25.2362C37.2365 25.2016 37.3021 25.1757 37.3677 25.154C37.3764 25.154 37.3808 25.154 37.3896 25.1497C37.4158 25.1411 37.4421 25.1367 37.4683 25.1281C37.4814 25.1281 37.4989 25.1237 37.512 25.1194C37.5295 25.1194 37.5514 25.1108 37.5689 25.1108C37.582 25.1108 37.5995 25.1108 37.617 25.1108C37.6389 25.1108 37.6564 25.1108 37.6782 25.1108C37.6913 25.1108 37.7088 25.1108 37.722 25.1108C37.7438 25.1108 37.7657 25.1108 37.7832 25.1108C37.7876 25.1108 37.7919 25.1108 37.7963 25.1108C37.8051 25.1108 37.8182 25.1108 37.8269 25.1151C37.8444 25.1151 37.8663 25.1194 37.8838 25.1237C37.9013 25.1237 37.9144 25.1324 37.9319 25.1324C37.9494 25.1324 37.9669 25.1411 37.9844 25.1454C38.0019 25.1497 38.015 25.154 38.0325 25.1627C38.05 25.167 38.0631 25.1757 38.0806 25.18C38.0981 25.1843 38.1112 25.193 38.1287 25.2016C38.1418 25.2103 38.1593 25.2146 38.1724 25.2233C38.1856 25.2319 38.203 25.2406 38.2162 25.2492C38.2293 25.2579 38.2468 25.2665 38.2599 25.2752C38.273 25.2838 38.2861 25.2925 38.2993 25.3055C38.3124 25.3141 38.3255 25.3271 38.3386 25.3357C38.3518 25.3487 38.3649 25.3574 38.378 25.3704C38.3911 25.379 38.3999 25.392 38.413 25.405C38.4261 25.4179 38.4392 25.4309 38.4523 25.4439C38.4611 25.4526 38.4655 25.4569 38.4742 25.4655L38.4917 25.4872Z" fill="#774620"/>
<path id="Vector_3" d="M52.2247 15.4108C52.2247 15.4108 52.2247 15.4152 52.2247 15.4195C53.4449 18.4047 51.9929 21.8227 48.9576 23.0384C45.9224 24.2541 42.4717 22.8004 41.2514 19.8065C40.0312 16.8299 41.4657 13.4423 44.4529 12.2049L44.5141 12.179C47.5406 10.9676 50.9957 12.4083 52.2247 15.4108ZM50.2872 16.1853C49.4956 14.2513 47.2695 13.3082 45.3013 14.0956C43.342 14.8787 42.3929 17.0852 43.1889 19.0278C43.7881 20.4858 45.1964 21.3727 46.6834 21.3943C47.182 21.403 47.6849 21.3121 48.1792 21.1174C50.1385 20.3343 51.0876 18.1279 50.2916 16.1853H50.2872Z" fill="#774620"/>
<path id="Vector_4" d="M66.207 9.06392C66.2551 9.63069 65.8265 10.1326 65.2535 10.1802C65.201 10.1802 65.1486 10.1802 65.0961 10.1802V10.2061L60.1015 10.6128L60.3027 13.0313L64.4138 12.6982C64.9911 12.6506 65.4941 13.0746 65.5422 13.6456C65.5903 14.2124 65.1617 14.7143 64.5844 14.7619L60.4732 15.095L60.7575 18.5475C60.8056 19.1143 60.377 19.6162 59.7997 19.6638C59.2268 19.7113 58.7194 19.2873 58.6713 18.7163L57.9278 9.74318C57.9059 9.46196 58.0022 9.20237 58.1727 9.00335C58.1727 9.00335 58.1727 8.99903 58.1815 8.9947C58.2077 8.96441 58.234 8.93846 58.2646 8.9125C58.4308 8.76107 58.6451 8.66156 58.8856 8.64426L64.9255 8.15537C64.978 8.14239 65.0261 8.13373 65.083 8.12941C65.6559 8.08182 66.1632 8.50581 66.2113 9.0769L66.207 9.06392Z" fill="#774620"/>
<path id="Vector_5" d="M81.6544 11.0671C81.545 11.6295 80.9983 11.9929 80.4298 11.8848C80.3773 11.8761 80.3292 11.8588 80.2767 11.8415V11.8675L75.3477 10.9286L74.8841 13.3125L78.934 14.087C79.5026 14.1951 79.87 14.7359 79.7606 15.2984C79.6513 15.8565 79.1046 16.2242 78.536 16.1161L74.4861 15.3416L73.8257 18.7422C73.7164 19.3003 73.1697 19.6681 72.6011 19.5599C72.0325 19.4518 71.6652 18.911 71.7745 18.3485L73.4977 9.50956C73.5545 9.23699 73.7164 9.00769 73.935 8.86059C73.935 8.86059 73.9394 8.86059 73.9438 8.85626C73.9788 8.83463 74.0094 8.81732 74.0444 8.79569C74.2456 8.69618 74.4774 8.65724 74.7179 8.70051L80.6659 9.83404C80.7184 9.83404 80.7709 9.84269 80.8234 9.85135C81.3876 9.95951 81.7593 10.5003 81.65 11.0628L81.6544 11.0671Z" fill="#774620"/>
<path id="Vector_6" d="M91.6742 25.0545C91.4162 25.565 90.7864 25.7727 90.2703 25.5174L84.8515 22.835C84.6765 22.7485 84.5409 22.623 84.4403 22.4716C84.2479 22.1731 84.2129 21.788 84.3835 21.4506L88.4509 13.412C88.4509 13.412 88.4509 13.412 88.4509 13.4077C88.4509 13.4077 88.4509 13.4077 88.4509 13.4034C88.7089 12.8928 89.3387 12.6852 89.8548 12.9404C89.9029 12.9621 89.9423 12.9923 89.986 13.0183L95.2693 15.6358C95.7854 15.8911 95.9953 16.5141 95.7372 17.0246C95.4792 17.5351 94.8494 17.7428 94.3333 17.4875L89.8504 15.2681L88.7527 17.4399L92.444 19.2657C92.96 19.521 93.17 20.144 92.9119 20.6502C92.6539 21.1607 92.0241 21.3684 91.508 21.1131L87.8167 19.2873L86.719 21.4592L91.2019 23.6787C91.7179 23.934 91.9279 24.557 91.6698 25.0675L91.6742 25.0545Z" fill="#774620"/>
<path id="Vector_7" d="M101.786 33.2013C101.401 33.6253 100.741 33.6599 100.312 33.2791L95.8072 29.2685C95.6629 29.1387 95.5623 28.9786 95.5098 28.8099C95.4049 28.4724 95.4748 28.0917 95.7285 27.8105L101.808 21.1261C101.808 21.1261 101.808 21.1261 101.808 21.1218C102.193 20.6978 102.853 20.6632 103.282 21.0439C103.321 21.0785 103.352 21.1131 103.387 21.1521L107.778 25.0632C108.206 25.4439 108.241 26.0972 107.856 26.5212C107.472 26.9452 106.811 26.9798 106.383 26.5991L102.656 23.2807L101.012 25.0848L104.078 27.8148C104.506 28.1955 104.541 28.8488 104.156 29.2728C103.771 29.6968 103.111 29.7314 102.682 29.3507L99.6166 26.6207L97.9721 28.4248L101.698 31.7432C102.127 32.124 102.162 32.7773 101.777 33.2013H101.786Z" fill="#774620"/>
</g>
<g id="Group_2">
<path id="Vector_8" d="M66.5131 51.2816C61.1817 51.2816 56.8563 55.5604 56.8563 60.8387C56.8563 66.117 61.1817 70.3915 66.5131 70.3915C71.8445 70.3915 76.1743 66.1127 76.1743 60.8387C76.1743 55.5647 71.8488 51.2816 66.5131 51.2816ZM66.5131 58.563C64.6806 58.563 63.1936 57.092 63.1936 55.2792C63.1936 53.4664 64.6806 51.9954 66.5131 51.9954C68.3456 51.9954 69.8326 53.4621 69.8326 55.2792C69.8326 57.0963 68.35 58.563 66.5131 58.563Z" fill="#774620"/>
<path id="Vector_9" d="M39.642 67.9081L36.8079 65.0657C36.4055 64.659 36.6417 63.9711 37.2103 63.8975C38.3649 63.7461 39.9831 63.5298 41.0459 63.374C41.5488 63.3005 41.9599 63.7677 41.8156 64.2523L40.8097 67.6183C40.661 68.1201 40.0181 68.2802 39.6463 67.9081H39.642Z" fill="#774620"/>
<path id="Vector_10" d="M93.0913 67.9081L95.9253 65.0657C96.3277 64.659 96.0915 63.9711 95.523 63.8975C94.3683 63.7461 92.7501 63.5298 91.6873 63.374C91.1844 63.3005 90.7733 63.7677 90.9176 64.2523L91.9235 67.6183C92.0722 68.1201 92.7151 68.2802 93.0869 67.9081H93.0913Z" fill="#774620"/>
<path id="Vector_11" d="M105.884 39.3146C104.891 41.0105 103.728 42.3863 102.573 43.4853C103.662 44.2597 104.423 45.3932 104.677 46.8037C104.764 47.2926 104.082 47.4916 103.916 47.0113C103.535 45.8994 102.892 44.8221 102.053 43.9612C100.937 44.9476 99.8571 45.6831 98.9606 46.2066C100.093 46.8383 101.029 47.7814 101.558 48.9842C101.69 49.2871 101.3 49.6808 101.051 49.3736C100.211 48.3439 99.3192 47.3921 98.2827 46.5873C97.6441 46.9248 97.1543 47.1325 96.9094 47.2277C92.0984 41.746 85.7961 37.584 78.6279 35.3515C76.1699 37.6705 73.1784 36.909 72.8023 36.5673C74.9978 36.749 77.1234 36.1216 78.2255 34.4473C80.5435 30.9212 76.7822 27.9014 76.7822 27.9014C77.154 32.6907 69.4171 33.4349 69.4171 33.4349C69.4171 33.4349 73.4846 29.7963 68.7349 25.9804C69.5177 32.0201 56.9569 34.642 56.9569 34.642H56.97C48.7433 36.6192 41.5051 41.1057 36.1256 47.2277C35.8807 47.1325 35.3952 46.9248 34.7523 46.5873C33.7158 47.3921 32.8236 48.3439 31.9838 49.3736C31.7345 49.6808 31.3409 49.2871 31.4765 48.9842C32.0057 47.7814 32.9417 46.8383 34.0744 46.2066C33.1778 45.6831 32.0975 44.9476 30.9823 43.9612C30.1382 44.8221 29.4997 45.8994 29.1192 47.0113C28.9573 47.4916 28.2707 47.2969 28.3582 46.8037C28.6118 45.3932 29.3728 44.2597 30.4618 43.4853C29.3072 42.3863 28.1482 41.0105 27.1511 39.3146C26.7662 38.6569 25.7821 38.7564 25.5241 39.4703C23.2673 45.774 23.7353 53.5183 29.3903 57.9443L29.3991 57.9313C29.3991 57.9313 29.3991 57.9356 29.3991 57.94C27.3916 62.6731 26.2851 67.8649 26.2851 73.3162H34.2144C34.2144 70.9756 34.4636 68.6782 34.9622 66.4371C35.4608 64.196 36.2 62.0198 37.1884 59.9128C37.6345 58.961 38.776 58.5457 39.7382 58.987C40.7003 59.4283 41.1202 60.5575 40.6741 61.5093C40.3461 62.2145 40.0443 62.9241 39.7775 63.6466C39.3577 64.7758 39.0165 65.9266 38.7541 67.0948C38.2905 69.1152 38.0587 71.1962 38.0587 73.3162H55.3212C53.4711 70.9496 52.369 67.986 52.369 64.7628C52.369 57.0271 58.7107 50.7537 66.535 50.7537C74.3593 50.7537 80.6922 57.0271 80.6922 64.7628C80.6922 67.986 79.5944 70.954 77.7444 73.3162H95.0025C95.0025 71.114 94.7488 68.9508 94.2502 66.8525C93.9966 65.7838 93.6817 64.7282 93.3012 63.6898C93.03 62.9543 92.7282 62.2275 92.3915 61.5136C91.9454 60.5618 92.3609 59.4283 93.323 58.9913C94.2852 58.55 95.4311 58.9653 95.8728 59.9172C97.8453 64.1268 98.8425 68.635 98.8425 73.3205H106.772C106.772 67.8735 105.665 62.6774 103.662 57.9486C109.313 53.5183 109.785 45.774 107.528 39.4746C107.27 38.7608 106.286 38.6613 105.901 39.3189L105.884 39.3146Z" fill="#774620"/>
</g>
<g id="Group_3">
<path id="Vector_12" d="M14.9576 73.247C13.6105 73.247 12.5128 72.1611 12.5128 70.8285C12.5128 69.496 13.6105 68.41 14.9576 68.41C16.3046 68.41 17.4024 69.496 17.4024 70.8285C17.4024 72.1611 16.3046 73.247 14.9576 73.247Z" fill="#774620"/>
<path id="Vector_13" d="M118.073 73.247C116.726 73.247 115.628 72.1611 115.628 70.8285C115.628 69.496 116.726 68.41 118.073 68.41C119.42 68.41 120.518 69.496 120.518 70.8285C120.518 72.1611 119.42 73.247 118.073 73.247Z" fill="#774620"/>
</g>
</g>
<defs>
<clipPath id="clip0_42_222">
<rect width="133" height="81" fill="white"/>
</clipPath>
</defs>
</svg>
